<?xml version="1.0" encoding="utf-8"?>
<!-- Generator: Adobe Illustrator 16.0.0, SVG Export Plug-In . SVG Version: 6.00 Build 0)  -->
<!DOCTYPE svg PUBLIC "-//W3C//DTD SVG 1.1//EN" "http://www.w3.org/Graphics/SVG/1.1/DTD/svg11.dtd">
<svg version="1.1" xmlns="http://www.w3.org/2000/svg" xmlns:xlink="http://www.w3.org/1999/xlink" x="0px" y="0px" width="1366px"
	 height="768px" viewBox="0 0 1366 768" enable-background="new 0 0 1366 768" xml:space="preserve">
<g id="레이어_2">
	
		<radialGradient id="SVGID_1_" cx="682.9072" cy="384.1523" r="554.0489" gradientTransform="matrix(1.0066 0 0 1.0117 0.0859 -0.1467)" gradientUnits="userSpaceOnUse">
		<stop  offset="0.0097" style="stop-color:#0092C5"/>
		<stop  offset="0.1136" style="stop-color:#007EAE"/>
		<stop  offset="0.3068" style="stop-color:#005E88"/>
		<stop  offset="0.4858" style="stop-color:#00476C"/>
		<stop  offset="0.6436" style="stop-color:#00395C"/>
		<stop  offset="0.7633" style="stop-color:#003456"/>
		<stop  offset="0.8664" style="stop-color:#092F4A"/>
		<stop  offset="1" style="stop-color:#122A3F"/>
	</radialGradient>
	<rect fill="url(#SVGID_1_)" width="1375" height="777"/>
</g>
<g id="라인">
	<line fill="none" stroke="#FFFFFF" stroke-width="2" stroke-miterlimit="10" x1="338.742" y1="279.374" x2="568.095" y2="363.5"/>
	<line fill="none" stroke="#FFFFFF" stroke-width="2" stroke-miterlimit="10" x1="190.5" y1="225" x2="238.263" y2="242.519"/>
	<line fill="none" stroke="#FFFFFF" stroke-width="2" stroke-miterlimit="10" x1="238.322" y1="339.484" x2="190.5" y2="336"/>
	<line fill="none" stroke="#FFFFFF" stroke-width="2" stroke-miterlimit="10" x1="568" y1="363.5" x2="340.008" y2="346.892"/>
	<path fill="none" stroke="#FFFFFF" stroke-width="4" stroke-miterlimit="10" d="M191.5,442"/>
	<line fill="none" stroke="#FFFFFF" stroke-width="2" stroke-miterlimit="10" x1="339.409" y1="411.357" x2="568" y2="364"/>
	<line fill="none" stroke="#FFFFFF" stroke-width="2" stroke-miterlimit="10" x1="191.5" y1="442" x2="237.688" y2="432.432"/>
	
		<line fill="none" stroke="#FFFFFF" stroke-width="2" stroke-miterlimit="10" x1="335.576" y1="501.898" x2="567.095" y2="365.928"/>
	<line fill="none" stroke="#FFFFFF" stroke-width="2" stroke-miterlimit="10" x1="192.5" y1="585.928" x2="238.778" y2="558.748"/>
	<path fill="none" stroke="#FFFFFF" stroke-width="2" stroke-miterlimit="10" d="M674.691,433.913"/>
	<line fill="none" stroke="#FFFFFF" stroke-width="2" stroke-miterlimit="10" x1="766.25" y1="363.913" x2="674.691" y2="363.913"/>
	<line fill="none" stroke="#FFFFFF" stroke-width="2" stroke-miterlimit="10" x1="975.5" y1="363.913" x2="872.941" y2="363.913"/>
	<polygon fill="#FFFFFF" points="978.75,364 965,367.67 965,359.912 	"/>
	<polyline fill="none" stroke="#FFFFFF" stroke-width="2" stroke-miterlimit="10" points="920.333,363.667 920.333,237.897 
		795,237.897 	"/>
	<g>
		<polyline fill="none" stroke="#FFFFFF" stroke-width="2" stroke-miterlimit="10" points="644.333,235.271 487,235.271 
			417,268.912 		"/>
		<polygon fill="#FFFFFF" points="410.703,271.68 421.539,262.454 424.875,269.458 		"/>
	</g>
</g>
<g id="오브젝트">
	<g>
		<path fill="#FFFFFF" d="M661.939,250.255l4.878-27.267h17.411l-0.401,2.43l-0.401,2.43h-12.562l-1.029,5.657h11.601l-0.433,2.43
			l-0.433,2.43h-11.604l-1.241,7.03h13.102l-0.465,2.43l-0.465,2.43H661.939z"/>
		<path fill="#FFFFFF" d="M689.066,222.988h2.455h9.821c1.861,0,3.315,0.513,4.364,1.54s1.572,2.449,1.572,4.266
			c0,0.31-0.019,0.652-0.056,1.03c-0.038,0.377-0.088,0.739-0.152,1.085c-0.407,2.3-1.418,4.075-3.033,5.324
			c-0.503,0.383-1.059,0.717-1.669,1.001c0.235,0.111,0.444,0.241,0.626,0.39c1.177,0.927,1.594,2.485,1.252,4.674l-0.674,4.433
			c-0.14,0.891-0.172,1.521-0.097,1.892s0.289,0.668,0.642,0.89l-0.128,0.724h-5.439c-0.097-0.334-0.115-0.967-0.057-1.901
			c0.059-0.934,0.174-1.914,0.345-2.94l0.427-2.485c0.193-1.249,0.04-2.14-0.459-2.671c-0.498-0.531-1.445-0.797-2.84-0.797h-4.944
			h0.016l-1.935,10.814h-2.458h-2.458L689.066,222.988z M691.848,234.915h6.079c1.208,0,2.148-0.278,2.822-0.835
			s1.117-1.416,1.331-2.578c0.043-0.248,0.075-0.473,0.097-0.677s0.032-0.405,0.032-0.603c0-0.915-0.268-1.579-0.802-1.994
			c-0.534-0.414-1.389-0.622-2.563-0.622h-5.688L691.848,234.915z"/>
		<path fill="#FFFFFF" d="M713.129,222.988h2.455h9.821c1.861,0,3.315,0.513,4.364,1.54s1.572,2.449,1.572,4.266
			c0,0.31-0.019,0.652-0.056,1.03c-0.038,0.377-0.088,0.739-0.152,1.085c-0.407,2.3-1.418,4.075-3.033,5.324
			c-0.503,0.383-1.059,0.717-1.669,1.001c0.235,0.111,0.444,0.241,0.626,0.39c1.177,0.927,1.594,2.485,1.252,4.674l-0.674,4.433
			c-0.14,0.891-0.172,1.521-0.097,1.892s0.289,0.668,0.642,0.89l-0.128,0.724h-5.439c-0.097-0.334-0.115-0.967-0.057-1.901
			c0.059-0.934,0.174-1.914,0.345-2.94l0.427-2.485c0.193-1.249,0.04-2.14-0.459-2.671c-0.498-0.531-1.445-0.797-2.84-0.797h-4.944
			h0.016l-1.935,10.814h-2.458h-2.458L713.129,222.988z M715.91,234.915h6.079c1.208,0,2.148-0.278,2.822-0.835
			s1.117-1.416,1.331-2.578c0.043-0.248,0.075-0.473,0.097-0.677s0.032-0.405,0.032-0.603c0-0.915-0.268-1.579-0.802-1.994
			c-0.534-0.414-1.389-0.622-2.563-0.622h-5.688L715.91,234.915z"/>
		<path fill="#FFFFFF" d="M735.771,248.289c-1.632-1.768-2.447-4.223-2.447-7.364c0-0.618,0.034-1.298,0.104-2.041
			c0.07-0.742,0.169-1.465,0.297-2.17c0.792-4.415,2.439-7.92,4.943-10.517c2.503-2.597,5.498-3.896,8.986-3.896
			c2.877,0,5.129,0.894,6.756,2.681c1.626,1.787,2.438,4.263,2.438,7.429c-0.011,0.619-0.051,1.308-0.12,2.068
			c-0.069,0.76-0.168,1.505-0.297,2.235c-0.781,4.366-2.429,7.828-4.942,10.388c-2.493,2.56-5.478,3.84-8.954,3.84
			C739.657,250.941,737.402,250.057,735.771,248.289z M748.468,243.614c1.446-1.707,2.431-4.013,2.953-6.919
			c0.097-0.544,0.171-1.106,0.225-1.688c0.054-0.582,0.086-1.113,0.097-1.596c0-1.991-0.438-3.545-1.312-4.665
			c-0.874-1.119-2.084-1.679-3.629-1.679c-1.948,0-3.647,0.866-5.098,2.597s-2.438,4.075-2.962,7.03
			c-0.096,0.557-0.174,1.12-0.232,1.688c-0.059,0.569-0.088,1.076-0.088,1.521c0,1.966,0.438,3.503,1.317,4.61
			c0.878,1.106,2.094,1.66,3.647,1.66C745.328,246.174,747.022,245.321,748.468,243.614z"/>
		<path fill="#FFFFFF" d="M763.083,222.988h2.455h9.821c1.861,0,3.315,0.513,4.364,1.54s1.572,2.449,1.572,4.266
			c0,0.31-0.019,0.652-0.056,1.03c-0.038,0.377-0.088,0.739-0.152,1.085c-0.407,2.3-1.418,4.075-3.033,5.324
			c-0.503,0.383-1.059,0.717-1.669,1.001c0.235,0.111,0.444,0.241,0.626,0.39c1.177,0.927,1.594,2.485,1.252,4.674l-0.674,4.433
			c-0.14,0.891-0.172,1.521-0.097,1.892s0.289,0.668,0.642,0.89l-0.128,0.724h-5.439c-0.097-0.334-0.115-0.967-0.057-1.901
			c0.059-0.934,0.174-1.914,0.345-2.94l0.427-2.485c0.193-1.249,0.04-2.14-0.459-2.671c-0.498-0.531-1.445-0.797-2.84-0.797h-4.944
			h0.016l-1.935,10.814h-2.458h-2.458L763.083,222.988z M765.864,234.915h6.079c1.208,0,2.148-0.278,2.822-0.835
			s1.117-1.416,1.331-2.578c0.043-0.248,0.075-0.473,0.097-0.677s0.032-0.405,0.032-0.603c0-0.915-0.268-1.579-0.802-1.994
			c-0.534-0.414-1.389-0.622-2.563-0.622h-5.688L765.864,234.915z"/>
	</g>
	<path fill="none" stroke="#FFFFFF" stroke-width="2" stroke-miterlimit="10" d="M147,379.5c-23.986,0-43.5-19.514-43.5-43.5
		c0-23.986,19.514-43.5,43.5-43.5s43.5,19.514,43.5,43.5C190.5,359.986,170.986,379.5,147,379.5"/>
	<path fill="none" stroke="#FFFFFF" stroke-width="2" stroke-miterlimit="10" d="M149,626.5c-23.986,0-43.5-19.514-43.5-43.5
		s19.514-43.5,43.5-43.5s43.5,19.514,43.5,43.5S172.986,626.5,149,626.5"/>
	<path fill="none" stroke="#FFFFFF" stroke-width="2" stroke-miterlimit="10" d="M147,268.5c-23.986,0-43.5-19.514-43.5-43.5
		s19.514-43.5,43.5-43.5s43.5,19.514,43.5,43.5S170.986,268.5,147,268.5"/>
	<g>
		<path fill="#FFFFFF" d="M149.693,215.134h-4.09l0.48-4.494c1.055,0.076,2.043-0.369,2.965-1.332s1.707-2.379,2.355-4.246h2.778
			l-3.528,32.834h-1.699h-1.699L149.693,215.134z"/>
	</g>
	<g>
		<path fill="#FFFFFF" d="M139.156,327.756l-7.383-15.234h3.42h3.449l4.886,11.09l9.491-11.09h3.191h3.19l-13.74,15.293
			l7.676,16.113h-3.343h-3.342l-5.186-11.908l-10.23,11.908h-3.334h-3.334L139.156,327.756z"/>
	</g>
	<g>
		<path fill="#FFFFFF" d="M165.198,345.947l-4.605-0.014l0.41-1.94c1.139,0.027,2.283-0.311,3.432-1.015
			c1.176-0.722,2.06-1.636,2.652-2.743h1.982l-4.076,19.676h-1.339h-1.339L165.198,345.947z"/>
	</g>
	<g>
		<path fill="#FFFFFF" d="M142.156,569.756l-7.383-15.234h3.42h3.449l4.886,11.09l9.491-11.09h3.191h3.19l-13.74,15.293
			l7.676,16.113h-3.343h-3.342l-5.186-11.908l-10.23,11.908h-3.334h-3.334L142.156,569.756z"/>
	</g>
	<g>
		<path fill="#FFFFFF" d="M163.848,587.599h1.476h1.476l-0.581,2.853l0.836-0.889c1.693-1.674,3.512-2.511,5.456-2.511
			c2.114,0,3.592,0.532,4.434,1.597c0.842,1.065,1.046,2.656,0.613,4.774l-2.574,12.485h-1.539h-1.556l2.475-12.007
			c0.285-1.378,0.211-2.397-0.222-3.058c-0.433-0.66-1.241-0.991-2.425-0.991c-1.788,0-3.231,0.59-4.329,1.769
			c-1.099,1.178-1.899,2.991-2.4,5.439l-1.824,8.848h-1.537h-1.555L163.848,587.599z"/>
	</g>
	<path fill="none" stroke="#FFFFFF" stroke-width="2" stroke-miterlimit="10" d="M148,485.5c-23.986,0-43.5-19.514-43.5-43.5
		s19.514-43.5,43.5-43.5s43.5,19.514,43.5,43.5S171.986,485.5,148,485.5"/>
	<g>
		<path fill="#FFFFFF" d="M140.156,433.756l-7.383-15.234h3.42h3.449l4.886,11.09l9.491-11.09h3.191h3.19l-13.74,15.293
			l7.676,16.113h-3.343h-3.342l-5.186-11.908l-10.23,11.908h-3.334h-3.334L140.156,433.756z"/>
	</g>
	<g>
		<path fill="#FFFFFF" d="M173.084,450.813c0,1.776-0.549,3.257-1.646,4.44c-1.098,1.185-3.164,2.523-6.197,4.018
			c-2.059,1.021-3.521,1.995-4.386,2.924c-0.346,0.383-0.661,0.825-0.943,1.325h10.672l-0.492,2.392h-13.486v-0.003
			c0.419-2.031,1.216-3.668,2.391-4.911c1.175-1.242,3.175-2.561,5.999-3.954c2.141-1.059,3.596-1.996,4.366-2.813
			s1.155-1.827,1.155-3.031c0.009-0.849-0.285-1.521-0.881-2.019s-1.396-0.746-2.398-0.746c-1.248,0-2.296,0.411-3.143,1.233
			s-1.43,1.996-1.749,3.521h-2.446c0.465-2.222,1.398-3.937,2.801-5.145c1.403-1.206,3.17-1.81,5.302-1.81
			c1.539,0,2.774,0.419,3.703,1.257C172.633,448.331,173.093,449.438,173.084,450.813z"/>
	</g>
	<path fill="none" stroke="#FFFFFF" stroke-width="3" stroke-miterlimit="10" d="M329.867,284.5h-81.735
		c-4.473,0-8.132-4.5-8.132-10V228c0-5.5,3.66-10,8.132-10h81.735c4.473,0,8.133,4.5,8.133,10v46.5
		C338,280,334.34,284.5,329.867,284.5"/>
	<g>
		<path fill="#FFFFFF" d="M268.401,263.928l-2.314-31.406h2.835h2.834l0.817,25.049h0.003l11.674-25.049h2.813h2.813l0.87,25.02
			h-0.007l11.634-25.02h2.614h2.644l-15.469,31.406h-2.754h-2.754l-1.172-24.609h-0.001l-11.629,24.609h-2.725H268.401z"/>
	</g>
	<g>
		<path fill="#FFFFFF" d="M309.006,277.962c-0.865-0.979-1.298-2.412-1.298-4.297v-0.055c0-0.583,0.041-1.225,0.123-1.927
			c0.082-0.701,0.205-1.443,0.369-2.227c0.674-3.27,1.772-5.791,3.293-7.563c1.521-1.771,3.352-2.658,5.493-2.658
			c1.63,0,2.89,0.519,3.778,1.558s1.332,2.505,1.332,4.4c0,0.51-0.037,1.082-0.109,1.715c-0.073,0.633-0.178,1.273-0.314,1.92
			c-0.738,3.534-1.843,6.185-3.314,7.952c-1.471,1.768-3.318,2.651-5.541,2.651C311.142,279.431,309.872,278.941,309.006,277.962z
			 M316.729,275.154c0.96-1.366,1.727-3.42,2.3-6.162c0.137-0.674,0.241-1.316,0.314-1.927c0.073-0.61,0.109-1.166,0.109-1.667
			c0.009-1.293-0.237-2.273-0.737-2.938c-0.5-0.665-1.233-0.998-2.198-0.998c-1.356,0-2.509,0.658-3.46,1.975
			c-0.951,1.316-1.695,3.295-2.231,5.937c-0.164,0.811-0.292,1.549-0.383,2.214c-0.073,0.656-0.109,1.266-0.109,1.831
			c0,1.285,0.239,2.237,0.717,2.856c0.478,0.62,1.213,0.929,2.205,0.929C314.611,277.204,315.77,276.521,316.729,275.154z"/>
	</g>
	<path fill="none" stroke="#FFFFFF" stroke-width="3" stroke-miterlimit="10" d="M329.867,371.5h-81.735
		c-4.473,0-8.132-4.5-8.132-10V315c0-5.5,3.66-10,8.132-10h81.735c4.473,0,8.133,4.5,8.133,10v46.5
		C338,367,334.34,371.5,329.867,371.5"/>
	<g>
		<path fill="#FFFFFF" d="M268.401,350.928l-2.314-31.406h2.835h2.834l0.817,25.049h0.003l11.674-25.049h2.813h2.813l0.87,25.02
			h-0.007l11.634-25.02h2.614h2.644l-15.469,31.406h-2.754h-2.754l-1.172-24.609h-0.001l-11.629,24.609h-2.725H268.401z"/>
	</g>
	<g>
		<path fill="#FFFFFF" d="M315.508,351.947l-4.605-0.014l0.41-1.94c1.139,0.027,2.283-0.311,3.432-1.015
			c1.176-0.722,2.06-1.636,2.652-2.743h1.982l-4.076,19.676h-1.339h-1.339L315.508,351.947z"/>
	</g>
	<path fill="none" stroke="#FFFFFF" stroke-width="3" stroke-miterlimit="10" d="M329.867,458.5h-81.735
		c-4.473,0-8.132-4.5-8.132-10V402c0-5.5,3.66-10,8.132-10h81.735c4.473,0,8.133,4.5,8.133,10v46.5
		C338,454,334.34,458.5,329.867,458.5"/>
	<g>
		<path fill="#FFFFFF" d="M268.401,437.928l-2.314-31.406h2.835h2.834l0.817,25.049h0.003l11.674-25.049h2.813h2.813l0.87,25.02
			h-0.007l11.634-25.02h2.614h2.644l-15.469,31.406h-2.754h-2.754l-1.172-24.609h-0.001l-11.629,24.609h-2.725H268.401z"/>
	</g>
	<g>
		<path fill="#FFFFFF" d="M322.394,437.813c0,1.776-0.549,3.257-1.646,4.44c-1.098,1.185-3.164,2.523-6.197,4.018
			c-2.059,1.021-3.521,1.995-4.386,2.924c-0.346,0.383-0.661,0.825-0.943,1.325h10.672l-0.492,2.392h-13.486v-0.003
			c0.419-2.031,1.216-3.668,2.391-4.911c1.175-1.242,3.175-2.561,5.999-3.954c2.141-1.059,3.596-1.996,4.366-2.813
			s1.155-1.827,1.155-3.031c0.009-0.849-0.285-1.521-0.881-2.019s-1.396-0.746-2.398-0.746c-1.248,0-2.296,0.411-3.143,1.233
			s-1.43,1.996-1.749,3.521h-2.446c0.465-2.222,1.398-3.937,2.801-5.145c1.403-1.206,3.17-1.81,5.302-1.81
			c1.539,0,2.774,0.419,3.703,1.257C321.942,435.331,322.402,436.438,322.394,437.813z"/>
	</g>
	<path fill="none" stroke="#FFFFFF" stroke-width="3" stroke-miterlimit="10" d="M329.867,565.5h-81.735
		c-4.473,0-8.132-4.5-8.132-10V509c0-5.5,3.66-10,8.132-10h81.735c4.473,0,8.133,4.5,8.133,10v46.5
		C338,561,334.34,565.5,329.867,565.5"/>
	<g>
		<path fill="#FFFFFF" d="M268.401,544.928l-2.314-31.406h2.835h2.834l0.817,25.049h0.003l11.674-25.049h2.813h2.813l0.87,25.02
			h-0.007l11.634-25.02h2.614h2.644l-15.469,31.406h-2.754h-2.754l-1.172-24.609h-0.001l-11.629,24.609h-2.725H268.401z"/>
	</g>
	<g>
		<path fill="#FFFFFF" d="M310.005,545.265h1.181h1.181l-0.464,2.281l0.669-0.71c1.355-1.34,2.81-2.009,4.365-2.009
			c1.691,0,2.874,0.426,3.547,1.277s0.837,2.125,0.491,3.819l-2.059,9.988h-1.231h-1.245l1.98-9.605
			c0.228-1.103,0.168-1.918-0.178-2.446s-0.993-0.792-1.94-0.792c-1.43,0-2.584,0.471-3.463,1.414
			c-0.879,0.942-1.519,2.394-1.919,4.352l-1.459,7.078h-1.23h-1.243L310.005,545.265z"/>
	</g>
	<path fill="none" stroke="#FFFFFF" stroke-width="5" stroke-miterlimit="10" d="M674.691,364.845
		c0,29.462-23.883,53.346-53.346,53.346S568,394.307,568,364.845c0-29.462,23.883-53.346,53.346-53.346
		S674.691,335.382,674.691,364.845"/>
	<path fill="none" stroke="#FFFFFF" stroke-width="5" stroke-miterlimit="10" d="M872.941,364.845
		c0,29.462-23.883,53.346-53.346,53.346s-53.346-23.884-53.346-53.346c0-29.462,23.883-53.346,53.346-53.346
		S872.941,335.382,872.941,364.845"/>
	<path fill="none" stroke="#FFFFFF" stroke-width="5" stroke-miterlimit="10" d="M1299,363.5c0,35.622-67.812,64.5-151.464,64.5
		c-83.649,0-151.464-28.878-151.464-64.5c0-35.623,67.814-64.5,151.464-64.5C1231.188,299,1299,327.877,1299,363.5"/>
	<g>
		<path fill="#FFFFFF" d="M1062.852,345.083c1.951,0.752,3.552,1.785,4.8,3.096c1.248,1.313,2.176,2.832,2.784,4.56
			c0.607,1.728,0.911,3.584,0.911,5.568c0,1.185-0.112,2.4-0.336,3.648c-0.512,2.849-1.424,5.424-2.735,7.728
			c-1.313,2.304-2.929,4.248-4.849,5.832s-4.056,2.784-6.407,3.601c-2.353,0.815-4.809,1.224-7.368,1.224
			c-4.769,0-8.505-1.231-11.208-3.696c-2.705-2.464-4.057-5.936-4.057-10.416c0-1.407,0.145-2.863,0.433-4.368
			c0.447-2.688,1.304-5.136,2.567-7.344c1.265-2.208,2.84-4.104,4.729-5.688c1.888-1.584,4.016-2.792,6.384-3.624
			c2.368-0.832,4.88-1.248,7.536-1.248C1058.627,343.956,1060.898,344.332,1062.852,345.083z M1051.163,353.244
			c-0.977,0.561-1.8,1.304-2.472,2.232c-0.672,0.929-1.217,1.944-1.632,3.048c-0.417,1.104-0.737,2.249-0.96,3.433
			c-0.192,1.151-0.288,2.24-0.288,3.264c0,1.984,0.407,3.593,1.224,4.824c0.816,1.232,2.184,1.848,4.104,1.848
			c2.336,0,4.208-0.896,5.616-2.688s2.384-4.208,2.929-7.248c0.191-0.96,0.287-1.904,0.287-2.832c0-1.984-0.439-3.601-1.319-4.848
			c-0.881-1.248-2.28-1.872-4.2-1.872C1053.234,352.404,1052.139,352.684,1051.163,353.244z"/>
		<path fill="#FFFFFF" d="M1079.123,344.868h11.328l-3.648,20.688c-0.16,0.96-0.239,1.761-0.239,2.4
			c0,1.248,0.327,2.216,0.983,2.903c0.655,0.688,1.815,1.032,3.48,1.032c1.92,0,3.375-0.552,4.367-1.656
			c0.992-1.104,1.664-2.664,2.017-4.68l3.647-20.688h11.328l-3.456,19.536c-0.96,5.537-3,9.576-6.12,12.12
			c-3.119,2.544-7.544,3.816-13.271,3.816c-4.769,0-8.345-0.872-10.729-2.616c-2.384-1.743-3.575-4.632-3.575-8.664
			c0-1.407,0.144-2.976,0.432-4.704L1079.123,344.868z"/>
		<path fill="#FFFFFF" d="M1117.09,344.868h31.68l-1.584,9.072h-10.176l-4.512,25.488h-11.328l4.512-25.488h-10.176L1117.09,344.868
			z"/>
		<path fill="#FFFFFF" d="M1146.754,379.428l6.096-34.56h16.656c4.287,0,7.512,0.809,9.672,2.424c2.16,1.617,3.24,3.896,3.24,6.84
			c0,0.769-0.081,1.568-0.24,2.399c-0.672,3.841-2.376,6.825-5.112,8.952c-2.736,2.129-6.521,3.192-11.352,3.192h-5.712
			l-1.92,10.752H1146.754z M1166.098,360.611c1.407,0,2.575-0.319,3.504-0.96c0.928-0.64,1.52-1.663,1.776-3.071
			c0-0.097,0.016-0.208,0.048-0.336c0-0.16,0-0.271,0-0.336c0-0.607-0.168-1.111-0.504-1.513c-0.336-0.399-0.776-0.703-1.32-0.912
			c-0.545-0.208-1.112-0.352-1.704-0.432c-0.593-0.08-1.24-0.12-1.944-0.12h-3.216l-1.344,7.68H1166.098z"/>
		<path fill="#FFFFFF" d="M1187.984,344.868h11.328l-3.648,20.688c-0.16,0.96-0.239,1.761-0.239,2.4
			c0,1.248,0.327,2.216,0.983,2.903c0.655,0.688,1.815,1.032,3.48,1.032c1.92,0,3.375-0.552,4.367-1.656
			c0.992-1.104,1.664-2.664,2.017-4.68l3.647-20.688h11.328l-3.456,19.536c-0.96,5.537-3,9.576-6.12,12.12
			c-3.119,2.544-7.544,3.816-13.271,3.816c-4.769,0-8.345-0.872-10.729-2.616c-2.384-1.743-3.575-4.632-3.575-8.664
			c0-1.407,0.144-2.976,0.432-4.704L1187.984,344.868z"/>
		<path fill="#FFFFFF" d="M1225.952,344.868h31.68l-1.584,9.072h-10.176l-4.512,25.488h-11.328l4.512-25.488h-10.176
			L1225.952,344.868z"/>
	</g>
	<rect x="646" y="206" fill="none" stroke="#FFFFFF" stroke-width="5" stroke-miterlimit="10" width="147.173" height="58.541"/>
	
		<polyline fill="none" stroke="#FFFFFF" stroke-width="8" stroke-linecap="round" stroke-linejoin="round" stroke-miterlimit="10" points="
		642.333,341 602,341 623.088,364.845 602,389 642.333,389.5 	"/>
	<path fill="none" stroke="#FFFFFF" stroke-width="8" stroke-linecap="round" stroke-linejoin="round" stroke-miterlimit="10" d="
		M848.668,341h-11.182c0,0-7.485-0.315-10.479,10.101c-2.994,10.416-8.882,31.509-8.882,31.509s-3.625,10.732-11.983,10.732
		c-6.309,0-11.475,0-11.475,0"/>
	<g>
		<g>
			
				<line fill="none" stroke="#FFFFFF" stroke-width="4" stroke-linecap="round" stroke-linejoin="round" x1="289" y1="469.832" x2="289" y2="469.832"/>
			
				<line fill="none" stroke="#FFFFFF" stroke-width="4" stroke-linecap="round" stroke-linejoin="round" stroke-dasharray="0,8.8335" x1="289" y1="478.666" x2="289" y2="482.082"/>
			
				<line fill="none" stroke="#FFFFFF" stroke-width="4" stroke-linecap="round" stroke-linejoin="round" x1="289" y1="487.499" x2="289" y2="487.499"/>
		</g>
	</g>
	<g>
		<g>
			
				<line fill="none" stroke="#FFFFFF" stroke-width="4" stroke-linecap="round" stroke-linejoin="round" x1="149" y1="505.165" x2="149" y2="505.165"/>
			
				<line fill="none" stroke="#FFFFFF" stroke-width="4" stroke-linecap="round" stroke-linejoin="round" stroke-dasharray="0,8.8335" x1="149" y1="513.999" x2="149" y2="517.415"/>
			
				<line fill="none" stroke="#FFFFFF" stroke-width="4" stroke-linecap="round" stroke-linejoin="round" x1="149" y1="522.832" x2="149" y2="522.832"/>
		</g>
	</g>
	<g>
		<path fill="#FFFFFF" d="M583.445,459.5h-0.926h-0.938v-17.227h1.137h1.137l7.09,14.005v-14.005h0.926h0.938V459.5h-1.02h-1.031
			l-7.313-13.938V459.5z"/>
		<path fill="#FFFFFF" d="M600.01,459.828c-1.43,0-2.566-0.564-3.41-1.693s-1.266-2.65-1.266-4.564c0-2.18,0.439-3.887,1.318-5.121
			s2.088-1.852,3.627-1.852c1.383,0,2.463,0.594,3.24,1.781s1.166,2.828,1.166,4.922l-0.002,0.668h-7.553
			c0.047,1.242,0.293,2.207,0.738,2.895c0.5,0.797,1.241,1.195,2.225,1.195c0.718,0,1.317-0.213,1.798-0.639
			c0.48-0.426,0.81-1.029,0.989-1.811h1.711c-0.188,1.344-0.68,2.383-1.477,3.117S601.283,459.828,600.01,459.828z M602.878,452.258
			c-0.078-1.172-0.297-2.051-0.656-2.637c-0.46-0.766-1.198-1.148-2.212-1.148c-0.875,0-1.577,0.445-2.107,1.336
			c-0.382,0.648-0.636,1.465-0.761,2.449H602.878z"/>
		<path fill="#FFFFFF" d="M610.785,459.512c-0.375,0.117-0.836,0.18-1.383,0.188c-0.719,0-1.236-0.223-1.553-0.668
			s-0.475-1.172-0.475-2.18v-8.145h-1.383v-1.746h1.383v-3.516h1.734v3.516h1.676v1.746h-1.676v8.145
			c0,0.367,0.082,0.629,0.246,0.785s0.438,0.234,0.82,0.234c0.234,0,0.438-0.016,0.609-0.047V459.512z"/>
		<path fill="#FFFFFF" d="M618.472,442.273h1.77v2.438h-1.77V442.273z M618.483,446.961h0.867h0.867V459.5h-0.867h-0.867V446.961z"
			/>
		<path fill="#FFFFFF" d="M623.036,446.961h0.809h0.82v2.004c0.125-0.258,0.258-0.492,0.398-0.703
			c0.719-1.109,1.695-1.664,2.93-1.664c1.063,0,1.9,0.4,2.514,1.201s0.92,1.889,0.92,3.264v8.438h-0.867h-0.867v-8.566
			c0-0.766-0.18-1.367-0.539-1.805s-0.852-0.656-1.477-0.656c-0.906,0-1.617,0.385-2.133,1.154s-0.773,1.826-0.773,3.17v6.703
			h-0.867h-0.867V446.961z"/>
		<path fill="#FFFFFF" d="M634.092,446.961h0.773h0.785v2.004l0.246-0.48c0.719-1.258,1.742-1.887,3.07-1.887
			c1.242,0,2.244,0.615,3.006,1.846s1.143,2.85,1.143,4.857c0,1.82-0.426,3.363-1.277,4.629s-1.895,1.898-3.129,1.898
			c-1.219,0-2.172-0.531-2.859-1.594l-0.023-0.035v6.293h-0.867h-0.867V446.961z M638.522,458.035c0.852,0,1.533-0.43,2.045-1.289
			s0.768-2,0.768-3.422c0-1.656-0.227-2.877-0.68-3.662s-1.16-1.178-2.121-1.178c-0.891,0-1.578,0.463-2.063,1.389
			s-0.727,2.244-0.727,3.955c0,1.273,0.254,2.293,0.762,3.059S637.686,458.035,638.522,458.035z"/>
		<path fill="#FFFFFF" d="M647.211,455.621c0,0.75,0.176,1.338,0.527,1.764s0.832,0.639,1.441,0.639c0.883,0,1.576-0.389,2.08-1.166
			s0.756-1.85,0.756-3.217v-6.68h0.867h0.867V459.5h-0.809h-0.82v-2.098c-0.109,0.266-0.242,0.52-0.398,0.762
			c-0.711,1.109-1.672,1.664-2.883,1.664c-1.039,0-1.859-0.354-2.461-1.061s-0.902-1.666-0.902-2.877v-8.93h0.867h0.867V455.621z"/>
		<path fill="#FFFFFF" d="M660.377,459.512c-0.375,0.117-0.836,0.18-1.383,0.188c-0.719,0-1.236-0.223-1.553-0.668
			s-0.475-1.172-0.475-2.18v-8.145h-1.383v-1.746h1.383v-3.516h1.734v3.516h1.676v1.746h-1.676v8.145
			c0,0.367,0.082,0.629,0.246,0.785s0.438,0.234,0.82,0.234c0.234,0,0.438-0.016,0.609-0.047V459.512z"/>
		<path fill="#FFFFFF" d="M583.516,477.472V488.3h-0.867h-0.867v-10.828h-1.418v-1.711h1.418v-1.582
			c0-1.172,0.211-2.016,0.633-2.531s1.113-0.773,2.074-0.773c0.273,0,0.527,0.02,0.762,0.059v1.816
			c-0.156-0.031-0.324-0.047-0.504-0.047c-0.438,0-0.752,0.113-0.943,0.34s-0.287,0.605-0.287,1.137v1.582h1.734v1.711H583.516z"/>
		<path fill="#FFFFFF" d="M588.889,484.421c0,0.75,0.176,1.338,0.527,1.764s0.832,0.639,1.441,0.639c0.883,0,1.576-0.389,2.08-1.166
			s0.756-1.85,0.756-3.217v-6.68h0.867h0.867V488.3h-0.809h-0.82v-2.098c-0.109,0.266-0.242,0.52-0.398,0.762
			c-0.711,1.109-1.672,1.664-2.883,1.664c-1.039,0-1.859-0.354-2.461-1.061s-0.902-1.666-0.902-2.877v-8.93h0.867h0.867V484.421z"/>
		<path fill="#FFFFFF" d="M598.269,475.761h0.809h0.82v2.004c0.125-0.258,0.258-0.492,0.398-0.703
			c0.719-1.109,1.695-1.664,2.93-1.664c1.063,0,1.9,0.4,2.514,1.201s0.92,1.889,0.92,3.264v8.438h-0.867h-0.867v-8.566
			c0-0.766-0.18-1.367-0.539-1.805s-0.852-0.656-1.477-0.656c-0.906,0-1.617,0.385-2.133,1.154s-0.773,1.826-0.773,3.17v6.703
			h-0.867h-0.867V475.761z"/>
		<path fill="#FFFFFF" d="M617.564,483.858c-0.117,1.523-0.553,2.699-1.307,3.527s-1.76,1.242-3.018,1.242
			c-1.359,0-2.443-0.588-3.252-1.764s-1.213-2.764-1.213-4.764c0-2.008,0.445-3.627,1.336-4.857s2.059-1.846,3.504-1.846
			c1.148,0,2.064,0.402,2.748,1.207s1.084,1.945,1.201,3.422h-1.688c-0.07-0.883-0.313-1.564-0.727-2.045s-0.973-0.721-1.676-0.721
			c-0.859,0-1.549,0.443-2.068,1.33s-0.779,2.064-0.779,3.533c0,1.492,0.25,2.652,0.75,3.48s1.199,1.242,2.098,1.242
			c0.633,0,1.162-0.26,1.588-0.779s0.713-1.256,0.861-2.209H617.564z"/>
		<path fill="#FFFFFF" d="M623.323,488.312c-0.375,0.117-0.836,0.18-1.383,0.188c-0.719,0-1.236-0.223-1.553-0.668
			s-0.475-1.172-0.475-2.18v-8.145h-1.383v-1.746h1.383v-3.516h1.734v3.516h1.676v1.746h-1.676v8.145
			c0,0.367,0.082,0.629,0.246,0.785s0.438,0.234,0.82,0.234c0.234,0,0.438-0.016,0.609-0.047V488.312z"/>
		<path fill="#FFFFFF" d="M625.298,471.073h1.77v2.438h-1.77V471.073z M625.31,475.761h0.867h0.867V488.3h-0.867h-0.867V475.761z"/>
		<path fill="#FFFFFF" d="M630.594,486.829c-0.879-1.199-1.318-2.775-1.318-4.729c0-2.008,0.439-3.627,1.318-4.857
			s2.033-1.846,3.463-1.846c1.438,0,2.594,0.615,3.469,1.846s1.313,2.85,1.313,4.857c0,1.953-0.438,3.529-1.313,4.729
			s-2.031,1.799-3.469,1.799C632.627,488.628,631.473,488.028,630.594,486.829z M636.249,485.511c0.547-0.859,0.82-2.004,0.82-3.434
			c0-1.469-0.273-2.645-0.82-3.527s-1.277-1.324-2.191-1.324s-1.645,0.441-2.191,1.324s-0.82,2.059-0.82,3.527
			c0,1.43,0.273,2.574,0.82,3.434s1.277,1.289,2.191,1.289S635.702,486.37,636.249,485.511z"/>
		<path fill="#FFFFFF" d="M641.047,475.761h0.809h0.82v2.004c0.125-0.258,0.258-0.492,0.398-0.703
			c0.719-1.109,1.695-1.664,2.93-1.664c1.063,0,1.9,0.4,2.514,1.201s0.92,1.889,0.92,3.264v8.438h-0.867h-0.867v-8.566
			c0-0.766-0.18-1.367-0.539-1.805s-0.852-0.656-1.477-0.656c-0.906,0-1.617,0.385-2.133,1.154s-0.773,1.826-0.773,3.17v6.703
			h-0.867h-0.867V475.761z"/>
	</g>
	<g>
		<path fill="#FFFFFF" d="M779.313,444.324h-4.793v-1.02v-1.031h11.484v1.02v1.031h-4.793V459.5h-0.949h-0.949V444.324z"/>
		<path fill="#FFFFFF" d="M787.791,442.273h0.867h0.867v6.48l0.293-0.492c0.719-1.109,1.695-1.664,2.93-1.664
			c1.063,0,1.9,0.4,2.514,1.201s0.92,1.889,0.92,3.264v8.438h-0.867h-0.867v-8.566c0-0.766-0.18-1.367-0.539-1.805
			s-0.852-0.656-1.477-0.656c-0.906,0-1.617,0.385-2.133,1.154s-0.773,1.826-0.773,3.17v6.703h-0.867h-0.867V442.273z"/>
		<path fill="#FFFFFF" d="M799.211,446.961h0.809h0.82v2.238c0.141-0.336,0.293-0.648,0.457-0.938
			c0.656-1.109,1.484-1.664,2.484-1.664c0.156-0.008,0.305,0.004,0.445,0.035v2.227l-0.375-0.035c-0.906,0-1.617,0.322-2.133,0.967
			s-0.773,1.533-0.773,2.666v7.043h-0.867h-0.867V446.961z"/>
		<path fill="#FFFFFF" d="M809.963,459.828c-1.43,0-2.566-0.564-3.41-1.693s-1.266-2.65-1.266-4.564c0-2.18,0.439-3.887,1.318-5.121
			s2.088-1.852,3.627-1.852c1.383,0,2.463,0.594,3.24,1.781s1.166,2.828,1.166,4.922l-0.002,0.668h-7.553
			c0.047,1.242,0.293,2.207,0.737,2.895c0.499,0.797,1.241,1.195,2.226,1.195c0.718,0,1.316-0.213,1.797-0.639
			s0.811-1.029,0.99-1.811h1.711c-0.188,1.344-0.68,2.383-1.477,3.117S811.236,459.828,809.963,459.828z M812.831,452.258
			c-0.078-1.172-0.297-2.051-0.655-2.637c-0.461-0.766-1.198-1.148-2.213-1.148c-0.874,0-1.576,0.445-2.107,1.336
			c-0.382,0.648-0.635,1.465-0.76,2.449H812.831z"/>
		<path fill="#FFFFFF" d="M822.776,450.594c0.008-0.695-0.182-1.23-0.568-1.605s-0.939-0.563-1.658-0.563
			c-0.742,0-1.299,0.15-1.67,0.451s-0.557,0.756-0.557,1.365c0,0.5,0.168,0.871,0.504,1.113s1.004,0.473,2.004,0.691
			c1.508,0.336,2.547,0.773,3.117,1.313s0.855,1.348,0.855,2.426c0,1.242-0.383,2.227-1.148,2.953s-1.801,1.09-3.105,1.09
			c-1.391,0-2.441-0.361-3.152-1.084s-1.078-1.807-1.102-3.252h1.688c0.078,0.891,0.324,1.541,0.738,1.951s1.023,0.615,1.828,0.615
			c0.852,0,1.488-0.168,1.91-0.504s0.633-0.844,0.633-1.523c0-0.547-0.168-0.949-0.504-1.207c-0.328-0.258-0.984-0.496-1.969-0.715
			c-1.508-0.336-2.551-0.773-3.129-1.313c-0.57-0.531-0.855-1.34-0.855-2.426c0-1.156,0.352-2.074,1.055-2.754
			s1.656-1.02,2.859-1.02c1.188,0,2.141,0.367,2.859,1.102c0.703,0.719,1.055,1.66,1.055,2.824v0.07H822.776z"/>
		<path fill="#FFFFFF" d="M827.036,442.273h0.867h0.867v6.48l0.293-0.492c0.719-1.109,1.695-1.664,2.93-1.664
			c1.063,0,1.9,0.4,2.514,1.201s0.92,1.889,0.92,3.264v8.438h-0.867h-0.867v-8.566c0-0.766-0.18-1.367-0.539-1.805
			s-0.852-0.656-1.477-0.656c-0.906,0-1.617,0.385-2.133,1.154s-0.773,1.826-0.773,3.17v6.703h-0.867h-0.867V442.273z"/>
		<path fill="#FFFFFF" d="M838.953,458.029c-0.879-1.199-1.318-2.775-1.318-4.729c0-2.008,0.439-3.627,1.318-4.857
			s2.033-1.846,3.463-1.846c1.438,0,2.594,0.615,3.469,1.846s1.313,2.85,1.313,4.857c0,1.953-0.438,3.529-1.313,4.729
			s-2.031,1.799-3.469,1.799C840.986,459.828,839.832,459.229,838.953,458.029z M844.607,456.711c0.547-0.859,0.82-2.004,0.82-3.434
			c0-1.469-0.273-2.645-0.82-3.527s-1.277-1.324-2.191-1.324s-1.645,0.441-2.191,1.324s-0.82,2.059-0.82,3.527
			c0,1.43,0.273,2.574,0.82,3.434s1.277,1.289,2.191,1.289S844.061,457.57,844.607,456.711z"/>
		<path fill="#FFFFFF" d="M849.453,442.273h0.867h0.867V459.5h-0.867h-0.867V442.273z"/>
		<path fill="#FFFFFF" d="M857.826,459.828c-1.313,0-2.373-0.637-3.182-1.91s-1.213-2.945-1.213-5.016
			c0-1.891,0.381-3.414,1.143-4.57s1.764-1.734,3.006-1.734c1.305,0,2.324,0.617,3.059,1.852l0.188,0.305v-6.48h0.867h0.867V459.5
			h-0.809h-0.82v-1.746l-0.223,0.41C860.014,459.273,859.053,459.828,857.826,459.828z M858.014,448.508
			c-0.984,0-1.699,0.385-2.145,1.154s-0.668,1.998-0.668,3.686c0,1.422,0.256,2.561,0.768,3.416s1.189,1.283,2.033,1.283
			c0.852,0,1.535-0.408,2.051-1.225s0.773-1.904,0.773-3.264c0-1.617-0.244-2.863-0.732-3.738S858.912,448.508,858.014,448.508z"/>
		<path fill="#FFFFFF" d="M777.672,477.472V488.3h-0.867h-0.867v-10.828h-1.418v-1.711h1.418v-1.582
			c0-1.172,0.211-2.016,0.633-2.531s1.113-0.773,2.074-0.773c0.273,0,0.527,0.02,0.762,0.059v1.816
			c-0.156-0.031-0.324-0.047-0.504-0.047c-0.438,0-0.752,0.113-0.943,0.34s-0.287,0.605-0.287,1.137v1.582h1.734v1.711H777.672z"/>
		<path fill="#FFFFFF" d="M783.045,484.421c0,0.75,0.176,1.338,0.527,1.764s0.832,0.639,1.441,0.639c0.883,0,1.576-0.389,2.08-1.166
			s0.756-1.85,0.756-3.217v-6.68h0.867h0.867V488.3h-0.809h-0.82v-2.098c-0.109,0.266-0.242,0.52-0.398,0.762
			c-0.711,1.109-1.672,1.664-2.883,1.664c-1.039,0-1.859-0.354-2.461-1.061s-0.902-1.666-0.902-2.877v-8.93h0.867h0.867V484.421z"/>
		<path fill="#FFFFFF" d="M792.426,475.761h0.809h0.82v2.004c0.125-0.258,0.258-0.492,0.398-0.703
			c0.719-1.109,1.695-1.664,2.93-1.664c1.063,0,1.9,0.4,2.514,1.201s0.92,1.889,0.92,3.264v8.438h-0.867h-0.867v-8.566
			c0-0.766-0.18-1.367-0.539-1.805s-0.852-0.656-1.477-0.656c-0.906,0-1.617,0.385-2.133,1.154s-0.773,1.826-0.773,3.17v6.703
			h-0.867h-0.867V475.761z"/>
		<path fill="#FFFFFF" d="M811.721,483.858c-0.117,1.523-0.553,2.699-1.307,3.527s-1.76,1.242-3.018,1.242
			c-1.359,0-2.443-0.588-3.252-1.764s-1.213-2.764-1.213-4.764c0-2.008,0.445-3.627,1.336-4.857s2.059-1.846,3.504-1.846
			c1.148,0,2.064,0.402,2.748,1.207s1.084,1.945,1.201,3.422h-1.688c-0.07-0.883-0.313-1.564-0.727-2.045s-0.973-0.721-1.676-0.721
			c-0.859,0-1.549,0.443-2.068,1.33s-0.779,2.064-0.779,3.533c0,1.492,0.25,2.652,0.75,3.48s1.199,1.242,2.098,1.242
			c0.633,0,1.162-0.26,1.588-0.779s0.713-1.256,0.861-2.209H811.721z"/>
		<path fill="#FFFFFF" d="M817.479,488.312c-0.375,0.117-0.836,0.18-1.383,0.188c-0.719,0-1.236-0.223-1.553-0.668
			s-0.475-1.172-0.475-2.18v-8.145h-1.383v-1.746h1.383v-3.516h1.734v3.516h1.676v1.746h-1.676v8.145
			c0,0.367,0.082,0.629,0.246,0.785s0.438,0.234,0.82,0.234c0.234,0,0.438-0.016,0.609-0.047V488.312z"/>
		<path fill="#FFFFFF" d="M819.454,471.073h1.77v2.438h-1.77V471.073z M819.466,475.761h0.867h0.867V488.3h-0.867h-0.867V475.761z"
			/>
		<path fill="#FFFFFF" d="M824.75,486.829c-0.879-1.199-1.318-2.775-1.318-4.729c0-2.008,0.439-3.627,1.318-4.857
			s2.033-1.846,3.463-1.846c1.438,0,2.594,0.615,3.469,1.846s1.313,2.85,1.313,4.857c0,1.953-0.438,3.529-1.313,4.729
			s-2.031,1.799-3.469,1.799C826.783,488.628,825.629,488.028,824.75,486.829z M830.404,485.511c0.547-0.859,0.82-2.004,0.82-3.434
			c0-1.469-0.273-2.645-0.82-3.527s-1.277-1.324-2.191-1.324s-1.645,0.441-2.191,1.324s-0.82,2.059-0.82,3.527
			c0,1.43,0.273,2.574,0.82,3.434s1.277,1.289,2.191,1.289S829.857,486.37,830.404,485.511z"/>
		<path fill="#FFFFFF" d="M835.203,475.761h0.809h0.82v2.004c0.125-0.258,0.258-0.492,0.398-0.703
			c0.719-1.109,1.695-1.664,2.93-1.664c1.063,0,1.9,0.4,2.514,1.201s0.92,1.889,0.92,3.264v8.438h-0.867h-0.867v-8.566
			c0-0.766-0.18-1.367-0.539-1.805s-0.852-0.656-1.477-0.656c-0.906,0-1.617,0.385-2.133,1.154s-0.773,1.826-0.773,3.17v6.703
			h-0.867h-0.867V475.761z"/>
	</g>
	<g>
		<path fill="#FFFFFF" d="M482.749,218.5l-3.668-17.227h1.019h1.03l2.645,14.109h0.01l3.207-14.109h1.02h1.031l3.264,14.109h-0.003
			l2.6-14.109h1.054h1.066l-3.656,17.227h-1.02h-1.031l-3.297-14.32h0.006L484.8,218.5h-1.02H482.749z"/>
		<path fill="#FFFFFF" d="M503.052,218.828c-1.43,0-2.566-0.564-3.41-1.693s-1.266-2.65-1.266-4.564c0-2.18,0.439-3.887,1.318-5.121
			s2.088-1.852,3.627-1.852c1.383,0,2.463,0.594,3.24,1.781s1.166,2.828,1.166,4.922l-0.002,0.668h-7.553
			c0.047,1.242,0.293,2.207,0.738,2.895c0.5,0.797,1.241,1.195,2.225,1.195c0.718,0,1.317-0.213,1.798-0.639
			c0.48-0.426,0.81-1.029,0.989-1.811h1.711c-0.188,1.344-0.68,2.383-1.477,3.117S504.325,218.828,503.052,218.828z M505.92,211.258
			c-0.078-1.172-0.297-2.051-0.656-2.637c-0.46-0.766-1.198-1.148-2.212-1.148c-0.875,0-1.577,0.445-2.107,1.336
			c-0.382,0.648-0.636,1.465-0.761,2.449H505.92z"/>
		<path fill="#FFFFFF" d="M510.088,201.273h1.77v2.438h-1.77V201.273z M510.1,205.961h0.867h0.867V218.5h-0.867H510.1V205.961z"/>
		<path fill="#FFFFFF" d="M518.731,222.086c0.852,0,1.52-0.303,2.004-0.908s0.727-1.436,0.727-2.49v-1.547l-0.012,0.023
			c-0.68,1.109-1.617,1.664-2.813,1.664c-1.336,0-2.414-0.6-3.234-1.799s-1.23-2.775-1.23-4.729c0-2.008,0.381-3.627,1.143-4.857
			s1.76-1.846,2.994-1.846c1.305,0,2.324,0.613,3.059,1.84l0.176,0.293v-1.77h1.652v12.059c0,1.828-0.396,3.252-1.189,4.271
			s-1.9,1.529-3.322,1.529c-1.234,0-2.211-0.332-2.93-0.996s-1.125-1.609-1.219-2.836h1.734c0.102,0.672,0.367,1.189,0.797,1.553
			S518.051,222.086,518.731,222.086z M518.743,207.484c-0.953,0-1.656,0.393-2.109,1.178s-0.68,2.006-0.68,3.662
			c0,1.422,0.254,2.563,0.762,3.422s1.18,1.289,2.016,1.289c0.852,0,1.533-0.408,2.045-1.225s0.768-1.904,0.768-3.264
			c0-1.617-0.242-2.865-0.727-3.744S519.641,207.484,518.743,207.484z"/>
		<path fill="#FFFFFF" d="M525.838,201.273h0.867h0.867v6.48l0.293-0.492c0.719-1.109,1.695-1.664,2.93-1.664
			c1.063,0,1.9,0.4,2.514,1.201s0.92,1.889,0.92,3.264v8.438h-0.867h-0.867v-8.566c0-0.766-0.18-1.367-0.539-1.805
			s-0.852-0.656-1.477-0.656c-0.906,0-1.617,0.385-2.133,1.154s-0.773,1.826-0.773,3.17v6.703h-0.867h-0.867V201.273z"/>
		<path fill="#FFFFFF" d="M540.809,218.512c-0.375,0.117-0.836,0.18-1.383,0.188c-0.719,0-1.236-0.223-1.553-0.668
			s-0.475-1.172-0.475-2.18v-8.145h-1.383v-1.746h1.383v-3.516h1.734v3.516h1.676v1.746h-1.676v8.145
			c0,0.367,0.082,0.629,0.246,0.785s0.438,0.234,0.82,0.234c0.234,0,0.438-0.016,0.609-0.047V218.512z"/>
		<path fill="#FFFFFF" d="M550.253,214.621c0,0.75,0.176,1.338,0.527,1.764s0.832,0.639,1.441,0.639c0.883,0,1.576-0.389,2.08-1.166
			s0.756-1.85,0.756-3.217v-6.68h0.867h0.867V218.5h-0.809h-0.82v-2.098c-0.109,0.266-0.242,0.52-0.398,0.762
			c-0.711,1.109-1.672,1.664-2.883,1.664c-1.039,0-1.859-0.354-2.461-1.061s-0.902-1.666-0.902-2.877v-8.93h0.867h0.867V214.621z"/>
		<path fill="#FFFFFF" d="M559.505,205.961h0.773h0.785v2.004l0.246-0.48c0.719-1.258,1.742-1.887,3.07-1.887
			c1.242,0,2.244,0.615,3.006,1.846s1.143,2.85,1.143,4.857c0,1.82-0.426,3.363-1.277,4.629s-1.895,1.898-3.129,1.898
			c-1.219,0-2.172-0.531-2.859-1.594l-0.023-0.035v6.293h-0.867h-0.867V205.961z M563.935,217.035c0.852,0,1.533-0.43,2.045-1.289
			s0.768-2,0.768-3.422c0-1.656-0.227-2.877-0.68-3.662s-1.16-1.178-2.121-1.178c-0.891,0-1.578,0.463-2.063,1.389
			s-0.727,2.244-0.727,3.955c0,1.273,0.254,2.293,0.762,3.059S563.099,217.035,563.935,217.035z"/>
		<path fill="#FFFFFF" d="M574.628,218.828c-1.313,0-2.373-0.637-3.182-1.91s-1.213-2.945-1.213-5.016
			c0-1.891,0.381-3.414,1.143-4.57s1.764-1.734,3.006-1.734c1.305,0,2.324,0.617,3.059,1.852l0.188,0.305v-6.48h0.867h0.867V218.5
			h-0.809h-0.82v-1.746l-0.223,0.41C576.815,218.273,575.854,218.828,574.628,218.828z M574.815,207.508
			c-0.984,0-1.699,0.385-2.145,1.154s-0.668,1.998-0.668,3.686c0,1.422,0.256,2.561,0.768,3.416s1.189,1.283,2.033,1.283
			c0.852,0,1.535-0.408,2.051-1.225s0.773-1.904,0.773-3.264c0-1.617-0.244-2.863-0.732-3.738S575.714,207.508,574.815,207.508z"/>
		<path fill="#FFFFFF" d="M584.735,218.828c-0.984,0-1.779-0.33-2.385-0.99s-0.908-1.529-0.908-2.607
			c0-1.117,0.266-2.016,0.797-2.695s1.289-1.09,2.273-1.23l2.133-0.293c0.32-0.047,0.617-0.109,0.891-0.188
			c0.227-0.063,0.408-0.199,0.545-0.41s0.205-0.461,0.205-0.75v-0.363c0-0.625-0.205-1.109-0.615-1.453s-0.99-0.516-1.74-0.516
			c-0.719,0-1.273,0.201-1.664,0.604s-0.617,1.002-0.68,1.799h-1.641c0.109-1.406,0.512-2.447,1.207-3.123s1.707-1.014,3.035-1.014
			c1.211,0,2.152,0.326,2.824,0.979s1.008,1.561,1.008,2.725v6.961c0,0.273,0.049,0.475,0.146,0.604s0.248,0.193,0.451,0.193
			c0.078,0,0.262-0.035,0.551-0.105v1.535c-0.18,0.078-0.359,0.141-0.539,0.188s-0.324,0.07-0.434,0.07
			c-0.664,0-1.133-0.207-1.406-0.621c-0.18-0.297-0.309-0.75-0.387-1.359c-0.148,0.234-0.324,0.461-0.527,0.68
			C587.016,218.367,585.969,218.828,584.735,218.828z M588.286,213.66v-1.465c-0.406,0.219-0.867,0.375-1.383,0.469l-1.359,0.211
			c-0.836,0.133-1.426,0.361-1.77,0.686s-0.516,0.818-0.516,1.482c0,0.625,0.166,1.125,0.498,1.5s0.775,0.563,1.33,0.563
			c0.898,0,1.656-0.293,2.273-0.879c0.469-0.438,0.758-0.949,0.867-1.535c0.016-0.094,0.027-0.234,0.035-0.422
			C588.278,214.074,588.286,213.871,588.286,213.66z"/>
		<path fill="#FFFFFF" d="M596.975,218.512c-0.375,0.117-0.836,0.18-1.383,0.188c-0.719,0-1.236-0.223-1.553-0.668
			s-0.475-1.172-0.475-2.18v-8.145h-1.383v-1.746h1.383v-3.516h1.734v3.516h1.676v1.746h-1.676v8.145
			c0,0.367,0.082,0.629,0.246,0.785s0.438,0.234,0.82,0.234c0.234,0,0.438-0.016,0.609-0.047V218.512z"/>
		<path fill="#FFFFFF" d="M603.098,218.828c-1.43,0-2.566-0.564-3.41-1.693s-1.266-2.65-1.266-4.564c0-2.18,0.439-3.887,1.318-5.121
			s2.088-1.852,3.627-1.852c1.383,0,2.463,0.594,3.24,1.781s1.166,2.828,1.166,4.922l-0.002,0.668h-7.553
			c0.047,1.242,0.293,2.207,0.738,2.895c0.5,0.797,1.241,1.195,2.225,1.195c0.718,0,1.317-0.213,1.798-0.639
			c0.48-0.426,0.81-1.029,0.989-1.811h1.711c-0.188,1.344-0.68,2.383-1.477,3.117S604.371,218.828,603.098,218.828z
			 M605.966,211.258c-0.078-1.172-0.297-2.051-0.656-2.637c-0.46-0.766-1.198-1.148-2.212-1.148c-0.875,0-1.577,0.445-2.107,1.336
			c-0.382,0.648-0.636,1.465-0.761,2.449H605.966z"/>
	</g>
</g>
</svg>
